<svg xmlns="http://www.w3.org/2000/svg" version="1.1" xmlns:xlink="http://www.w3.org/1999/xlink" width="100%" height="100%"><svg xmlns="http://www.w3.org/2000/svg" xmlns:xlink="http://www.w3.org/1999/xlink" xmlns:serif="http://www.serif.com/" version="1.1" xml:space="preserve" style="fill-rule:evenodd;clip-rule:evenodd;stroke-linejoin:round;stroke-miterlimit:2;" viewBox="279.59564208984375 90.6025390625 520.81591796875 898.8038330078125" width="100%" height="100%">
    <g transform="matrix(3.25571,0,0,3.25571,-1246.73,-1503.8)">
        <g transform="matrix(1,0,0,1,138.405,88.025)">
            <path d="M427.7,464.38L427.7,417.14L416.16,417.14L416.16,475.91L490.38,475.91L490.38,464.38L427.7,464.38Z" style="fill: rgb(40, 54, 93); fill-rule: nonzero; cursor: pointer; stroke: rgb(40, 54, 93);" opacity="1" class="ring-2 ring-primary ring-2 ring-primary" stroke="#28365d" fill="#28365d"></path>
        </g>
        <g transform="matrix(1,0,0,1,138.405,88.025)">
            <path d="M416.16,487.45L416.16,677.77L427.7,677.77L427.7,498.99L474.94,498.99L474.94,487.45L416.16,487.45Z" style="fill-rule: nonzero; cursor: pointer; stroke: rgb(40, 54, 93); fill: rgb(40, 54, 93);" opacity="1" class="ring-2 ring-primary ring-2 ring-primary" stroke="#28365d" fill="#28365d"></path>
        </g>
        <g transform="matrix(1,0,0,1,138.405,88.025)">
            <path d="M330.41,487.45L330.41,498.99L393.09,498.99L393.09,662.33L404.62,662.33L404.62,487.45L330.41,487.45Z" style="fill: rgb(40, 54, 93); fill-rule: nonzero; cursor: pointer; stroke: rgb(40, 54, 93);" opacity="1" class="ring-2 ring-primary" stroke="#28365d" fill="#28365d"></path>
        </g>
        <g transform="matrix(1,0,0,1,138.405,88.025)">
            <path d="M393.09,401.7L393.09,464.38L345.85,464.38L345.85,475.91L404.62,475.91L404.62,401.7L393.09,401.7Z" style="fill: rgb(40, 54, 93); fill-rule: nonzero; cursor: pointer; stroke: rgb(40, 54, 93);" opacity="1" class="ring-2 ring-primary" stroke="#28365d" fill="#28365d"></path>
        </g>
    </g>
</svg></svg>